<svg width="512" height="512" viewBox="0 0 512 512" fill="none" xmlns="http://www.w3.org/2000/svg">
  <rect width="512" height="512" rx="64" fill="#F8F9FD"/>
  <rect x="44" y="44" width="424" height="424" rx="56" fill="#F9FAFD" stroke="#C2CCDF" stroke-width="10"/>
  <rect x="112" y="96" width="256" height="308" rx="24" fill="white"/>
  <path d="M320 96H368V144L320 96Z" fill="#F5F7FB"/>
  <rect x="134" y="130" width="84" height="84" rx="18" fill="#F1F4F9" stroke="#B4BFD6" stroke-width="4"/>
  <circle cx="176" cy="165" r="21" fill="#788CAB"/>
  <path d="M136 214C136 186.386 158.386 164 186 164H166C138.386 164 116 186.386 116 214V214H136Z" fill="#788CAB" transform="translate(20 12)"/>
  <rect x="234" y="162" width="76" height="13" rx="6.5" fill="#788CAB"/>
  <rect x="234" y="201" width="112" height="13" rx="6.5" fill="#788CAB"/>
  <rect x="134" y="240" width="42" height="42" rx="10" fill="#E5EAF3"/>
  <path d="M145 261L157 274L171 255" stroke="#788CAB" stroke-width="9" stroke-linecap="round" stroke-linejoin="round"/>
  <rect x="187" y="252" width="69" height="12" rx="6" fill="#788CAB"/>
  <rect x="187" y="281" width="53" height="12" rx="6" fill="#788CAB"/>
  <rect x="134" y="299" width="42" height="42" rx="10" fill="#E5EAF3"/>
  <path d="M145 320L157 333L171 314" stroke="#788CAB" stroke-width="9" stroke-linecap="round" stroke-linejoin="round"/>
  <rect x="187" y="311" width="64" height="12" rx="6" fill="#788CAB"/>
  <rect x="187" y="340" width="53" height="12" rx="6" fill="#788CAB"/>
  <rect x="134" y="358" width="42" height="42" rx="10" fill="#E5EAF3"/>
  <path d="M145 379L157 392L171 373" stroke="#788CAB" stroke-width="9" stroke-linecap="round" stroke-linejoin="round"/>
  <rect x="187" y="370" width="72" height="12" rx="6" fill="#788CAB"/>
  <rect x="187" y="399" width="57" height="12" rx="6" fill="#788CAB"/>
  <circle cx="318" cy="315" r="81" fill="#425470"/>
  <circle cx="318" cy="315" r="68" fill="#FBFCFF" stroke="#8495B2" stroke-width="4"/>
  <circle cx="318" cy="292" r="22" fill="#E1BE76"/>
  <rect x="287" y="320" width="62" height="47" rx="16" fill="#E1BE76"/>
  <circle cx="274" cy="316" r="14" fill="#CFD6E5"/>
  <rect x="254" y="336" width="40" height="31" rx="12" fill="#CFD6E5"/>
  <circle cx="362" cy="316" r="14" fill="#CFD6E5"/>
  <rect x="342" y="336" width="40" height="31" rx="12" fill="#CFD6E5"/>
  <path d="M387 385L436 434" stroke="#ECD6A1" stroke-width="18" stroke-linecap="round"/>
  <path d="M402 400L465 463" stroke="#425470" stroke-width="32" stroke-linecap="round"/>
</svg>
